<?xml version="1.0" standalone="no"?>
<!DOCTYPE svg PUBLIC "-//W3C//DTD SVG 20010904//EN"
 "http://www.w3.org/TR/2001/REC-SVG-20010904/DTD/svg10.dtd">
<svg version="1.0" xmlns="http://www.w3.org/2000/svg"
 width="98.000000pt" height="96.000000pt" viewBox="0 0 98.000000 96.000000"
 preserveAspectRatio="xMidYMid meet">
<metadata>
Created by potrace 1.13, written by Peter Selinger 2001-2015
</metadata>
<g transform="translate(0.000000,96.000000) scale(0.100000,-0.100000)"
fill="#000000" stroke="none">
<path d="M335 902 c-64 -22 -157 -84 -196 -131 -68 -82 -118 -236 -104 -325
28 -183 123 -309 284 -374 43 -18 74 -22 157 -22 57 0 116 5 131 11 83 33 124
59 176 111 101 100 151 247 127 379 -13 74 -56 168 -100 221 -42 50 -139 113
-204 132 -71 21 -206 20 -271 -2z m309 -82 c75 -35 137 -99 174 -178 24 -50
27 -70 27 -157 0 -87 -3 -107 -27 -157 -34 -74 -109 -149 -184 -184 -51 -24
-72 -28 -154 -28 -103 -1 -136 8 -210 57 -79 52 -116 101 -149 193 -71 203 60
440 269 485 71 16 186 2 254 -31z"/>
<path d="M433 607 c-56 -50 -105 -101 -109 -112 -5 -16 13 -39 100 -122 76
-73 114 -103 132 -103 19 0 24 5 24 24 0 16 -26 47 -91 107 l-92 83 92 86 c62
58 91 92 91 108 0 45 -41 25 -147 -71z"/>
</g>
</svg>
