<?xml version="1.0" standalone="no"?>
<!DOCTYPE svg PUBLIC "-//W3C//DTD SVG 20010904//EN"
 "http://www.w3.org/TR/2001/REC-SVG-20010904/DTD/svg10.dtd">
<svg version="1.0" xmlns="http://www.w3.org/2000/svg"
 width="98.000000pt" height="96.000000pt" viewBox="0 0 98.000000 96.000000"
 preserveAspectRatio="xMidYMid meet">
<metadata>
Created by potrace 1.13, written by Peter Selinger 2001-2015
</metadata>
<g transform="translate(0.000000,96.000000) scale(0.100000,-0.100000)"
fill="#000000" stroke="none">
<path d="M335 902 c-64 -22 -157 -84 -196 -131 -68 -82 -118 -237 -105 -326
12 -76 40 -150 77 -206 58 -86 117 -132 232 -178 36 -14 228 -14 264 0 83 33
124 59 176 111 101 100 151 247 127 379 -13 74 -56 168 -100 221 -42 50 -139
113 -204 132 -71 21 -206 20 -271 -2z m309 -82 c75 -35 137 -99 174 -178 24
-50 27 -70 27 -157 0 -87 -3 -107 -27 -157 -34 -74 -109 -149 -184 -184 -51
-24 -72 -28 -154 -28 -103 -1 -136 8 -210 57 -79 52 -116 101 -150 196 -70
199 64 438 270 482 71 16 186 2 254 -31z"/>
<path d="M370 679 c0 -13 33 -52 91 -108 l92 -86 -92 -85 c-64 -59 -91 -91
-91 -107 0 -18 5 -23 28 -23 21 0 50 23 130 102 56 56 102 107 102 113 0 15
-14 30 -122 133 -62 58 -95 82 -113 82 -19 0 -25 -5 -25 -21z"/>
</g>
</svg>
